<svg width="48" height="47" viewBox="0 0 48 47" fill="none" xmlns="http://www.w3.org/2000/svg">
<path d="M-4.76837e-07 2.98806C-4.76837e-07 1.34218 1.8771 0.400821 3.19617 1.3852L22.8038 16.0178C23.5134 16.5473 24.4866 16.5473 25.1962 16.0178L44.8038 1.3852C46.1229 0.400821 48 1.34218 48 2.98807V6.77313C48 7.40433 47.702 7.99848 47.1962 8.37599L25.1962 24.7939C24.4866 25.3234 23.5134 25.3234 22.8038 24.7939L0.803831 8.37599C0.297968 7.99848 -4.76837e-07 7.40432 -4.76837e-07 6.77313V2.98806ZM-4.76837e-07 24.3015C-4.76837e-07 22.6556 1.8771 21.7143 3.19617 22.6986L22.8038 37.3312C23.5134 37.8607 24.4866 37.8607 25.1962 37.3312L44.8038 22.6986C46.1229 21.7143 48 22.6556 48 24.3015V28.0866C48 28.7178 47.702 29.3119 47.1962 29.6894L25.1962 46.1073C24.4866 46.6368 23.5134 46.6368 22.8038 46.1073L0.803831 29.6894C0.297968 29.3119 -4.76837e-07 28.7178 -4.76837e-07 28.0866V24.3015Z" fill="#262626"/>
</svg>
